HIERARCHY
ROOT Hips
{
	OFFSET -0.001795 -0.223333 0.028219
	CHANNELS 6 Xposition Yposition Zposition Zrotation Yrotation Xrotation 
	JOINT LeftUpLeg
	{
		OFFSET 0.069520 -0.091406 -0.006815
		CHANNELS 3 Zrotation Yrotation Xrotation
		JOINT LeftLeg
		{
			OFFSET 0.034277 -0.375199 -0.004496
			CHANNELS 3 Zrotation Yrotation Xrotation
			JOINT LeftFoot
			{
				OFFSET -0.013596 -0.397961 -0.043693
				CHANNELS 3 Zrotation Yrotation Xrotation
				JOINT LeftToe
				{
					OFFSET 0.026358 -0.055791 0.119288
					CHANNELS 3 Zrotation Yrotation Xrotation
					End Site
					{
						OFFSET 0.000000 0.000000 0.000000
					}
				}
			}
		}
	}
	JOINT RightUpLeg
	{
		OFFSET -0.067670 -0.090522 -0.004320
		CHANNELS 3 Zrotation Yrotation Xrotation
		JOINT RightLeg
		{
			OFFSET -0.038290 -0.382569 -0.008850
			CHANNELS 3 Zrotation Yrotation Xrotation
			JOINT RightFoot
			{
				OFFSET 0.015774 -0.398415 -0.042312
				CHANNELS 3 Zrotation Yrotation Xrotation
				JOINT RightToe
				{
					OFFSET -0.025372 -0.048144 0.123348
					CHANNELS 3 Zrotation Yrotation Xrotation
					End Site
					{
						OFFSET 0.000000 0.000000 0.000000
					}
				}
			}
		}
	}
	JOINT Spine
	{
		OFFSET -0.002533 0.108963 -0.026696
		CHANNELS 3 Zrotation Yrotation Xrotation
		JOINT Spine1
		{
			OFFSET 0.005487 0.135180 0.001092
			CHANNELS 3 Zrotation Yrotation Xrotation
			JOINT Spine2
			{
				OFFSET 0.001457 0.052922 0.025425
				CHANNELS 3 Zrotation Yrotation Xrotation
				JOINT Neck
				{
					OFFSET -0.002778 0.213870 -0.042857
					CHANNELS 3 Zrotation Yrotation Xrotation
					JOINT Head
					{
						OFFSET 0.005152 0.064970 0.051349
						CHANNELS 3 Zrotation Yrotation Xrotation
						End Site
						{
							OFFSET 0.000000 0.000000 0.000000
						}
					}
				}
				JOINT LeftShoulder
				{
					OFFSET 0.078845 0.121749 -0.034090
					CHANNELS 3 Zrotation Yrotation Xrotation
					JOINT LeftArm
					{
						OFFSET 0.090977 0.030469 -0.008868
						CHANNELS 3 Zrotation Yrotation Xrotation
						JOINT LeftForeArm
						{
							OFFSET 0.259612 -0.012772 -0.027456
							CHANNELS 3 Zrotation Yrotation Xrotation
							JOINT LeftHand
							{
								OFFSET 0.249234 0.008986 -0.001171
								CHANNELS 3 Zrotation Yrotation Xrotation
								End Site
								{
									OFFSET 0.000000 0.000000 0.000000
								}
							}
						}
					}
				}
				JOINT RightShoulder
				{
					OFFSET -0.081759 0.118833 -0.038615
					CHANNELS 3 Zrotation Yrotation Xrotation
					JOINT RightArm
					{
						OFFSET -0.096012 0.032551 -0.009143
						CHANNELS 3 Zrotation Yrotation Xrotation
						JOINT RightForeArm
						{
							OFFSET -0.253742 -0.013329 -0.021401
							CHANNELS 3 Zrotation Yrotation Xrotation
							JOINT RightHand
							{
								OFFSET -0.255298 0.007772 -0.005559
								CHANNELS 3 Zrotation Yrotation Xrotation
								End Site
								{
									OFFSET 0.000000 0.000000 0.000000
								}
							}
						}
					}
				}
			}
		}
	}
}
MOTION
Frames: 13
Frame Time: 0.050000
-0.044846 0.960709 -0.105224 4.036501 -1.318330 14.809767 7.249050 -0.676634 -12.570452 1.395408 0.181387 -6.953327 3.846057 12.512240 23.969948 0.000000 0.000000 0.000000 -1.619875 2.033247 -22.301940 -6.379159 0.899164 2.797708 2.727293 0.194018 11.981110 0.000000 0.000000 0.000000 6.247767 -1.422491 11.091513 8.672760 -4.389428 3.837408 -6.064759 3.196083 8.793947 16.457502 -16.132677 6.637769 0.000000 0.000000 0.000000 22.566778 -27.907980 6.137508 -14.721650 -51.606359 1.787909 9.462214 -54.417323 -2.960173 0.000000 0.000000 0.000000 -3.214177 14.475044 5.061602 39.341000 29.874594 5.346592 -1.857315 30.425923 0.834387 0.000000 0.000000 0.000000 
-0.045258 0.960645 -0.106302 4.225642 -0.929921 15.057507 7.216272 -0.711840 -13.306301 1.477865 0.143800 -6.251696 3.219550 11.812538 24.190431 0.000000 0.000000 0.000000 -1.571345 2.062392 -22.733983 -6.444784 0.937749 3.089214 2.118398 -1.077077 12.271527 0.000000 0.000000 0.000000 6.322779 -1.488465 11.519033 9.006973 -4.633425 4.431896 -6.272889 3.864511 8.768845 16.882365 -16.601644 6.551916 0.000000 0.000000 0.000000 23.671252 -28.207272 6.118567 -11.504945 -51.897066 0.299984 12.700013 -53.998295 -4.744574 0.000000 0.000000 0.000000 -2.560420 14.757915 5.260303 38.235701 30.742323 5.433269 -2.145715 30.436509 0.809463 0.000000 0.000000 0.000000 
-0.045689 0.960441 -0.107095 4.555255 -0.586510 15.383887 7.085813 -0.749892 -13.798322 1.212747 0.155834 -6.215857 2.811663 11.367458 24.268062 0.000000 0.000000 0.000000 -1.747735 2.027710 -22.796974 -6.388399 0.926911 3.041300 1.562299 -2.025613 12.062465 0.000000 0.000000 0.000000 6.473958 -1.596677 12.241276 8.998313 -4.628963 4.380262 -6.223095 4.521867 8.970505 17.332864 -16.995145 6.234691 0.000000 0.000000 0.000000 23.537327 -28.647062 6.296804 -9.438687 -51.765380 -0.722934 14.867474 -54.683169 -6.069163 0.000000 0.000000 0.000000 -1.909877 14.951570 5.446365 37.325786 31.006320 5.323227 -2.501222 30.222753 0.752488 0.000000 0.000000 0.000000 
-0.045961 0.960455 -0.107634 4.868335 -0.270639 15.459375 7.046381 -0.774863 -14.205026 1.212259 0.138294 -5.827017 2.476030 11.018546 24.381244 0.000000 0.000000 0.000000 -2.027193 1.967670 -22.705745 -5.922260 0.872487 3.075198 0.945710 -3.113655 11.880328 0.000000 0.000000 0.000000 6.402301 -1.657763 12.909545 9.396176 -4.827306 4.271943 -6.229603 5.501026 8.969306 18.466540 -17.732837 5.148091 0.000000 0.000000 0.000000 23.620918 -29.025700 6.476123 -8.392641 -51.539022 -1.404320 16.333567 -56.597979 -7.333633 0.000000 0.000000 0.000000 -1.688004 15.490662 5.723058 36.589783 30.549258 5.067909 -3.060639 29.812375 0.642074 0.000000 0.000000 0.000000 
-0.045923 0.959996 -0.107925 5.177558 0.208831 15.607196 6.704999 -0.820921 -14.330891 1.134291 0.156543 -6.134597 2.290252 10.881682 24.440228 0.000000 0.000000 0.000000 -2.367013 1.873243 -22.360643 -6.101717 0.858612 2.661179 0.650756 -3.672795 12.054470 0.000000 0.000000 0.000000 6.907977 -1.819123 13.456986 9.397806 -4.859105 4.420205 -6.390055 6.385702 8.895791 19.788765 -18.223090 3.254414 0.000000 0.000000 0.000000 23.474810 -29.211107 6.670794 -8.239041 -51.244846 -1.716627 17.796494 -60.034126 -8.979821 0.000000 0.000000 0.000000 -2.009290 15.736081 5.815477 35.884520 29.940357 4.816498 -3.782939 28.552232 0.455666 0.000000 0.000000 0.000000 
-0.045553 0.960054 -0.108160 5.689267 0.605972 15.749093 6.203920 -0.879719 -14.566521 1.245054 0.146819 -6.027245 2.005340 10.523221 24.002107 0.000000 0.000000 0.000000 -3.181580 1.733042 -22.227384 -5.721102 0.803369 2.545125 0.088970 -4.578614 11.711324 0.000000 0.000000 0.000000 7.060403 -1.914098 13.996805 9.390193 -4.819894 4.051353 -6.165263 7.040442 9.215847 20.879387 -18.620449 1.742679 0.000000 0.000000 0.000000 23.101721 -29.542807 6.848298 -7.830995 -51.690865 -2.085322 19.082854 -61.898405 -10.247898 0.000000 0.000000 0.000000 -2.314418 16.277002 5.995703 35.713151 29.066553 4.543061 -4.622039 28.113697 0.271767 0.000000 0.000000 0.000000 
-0.045010 0.959941 -0.108430 6.283128 1.559166 15.791457 5.817495 -0.947783 -14.923380 0.866178 0.158112 -5.857495 1.638199 10.195812 23.819688 0.000000 0.000000 0.000000 -3.992388 1.551579 -21.745713 -5.731838 0.774815 2.151011 -0.331212 -5.227286 11.666111 0.000000 0.000000 0.000000 7.226452 -1.983274 14.129555 9.593709 -4.966394 4.146484 -6.152595 7.124292 9.112923 21.420175 -18.503777 0.409369 0.000000 0.000000 0.000000 22.737500 -29.504476 6.971694 -7.520987 -53.047379 -2.403721 21.139874 -62.527286 -11.702652 0.000000 0.000000 0.000000 -2.685785 16.565579 6.056272 35.249684 27.954084 4.169546 -5.015472 27.255816 0.171053 0.000000 0.000000 0.000000 
-0.044512 0.960274 -0.108822 6.683631 2.248780 15.832540 5.627405 -0.976959 -14.856156 0.781243 0.163798 -5.896190 0.930147 9.375959 23.690904 0.000000 0.000000 0.000000 -4.610652 1.407310 -21.159907 -5.382453 0.699177 1.708797 -0.821037 -5.983494 11.351215 0.000000 0.000000 0.000000 7.102088 -1.964194 14.045083 9.665893 -4.993685 3.906793 -5.574099 7.506687 9.306112 22.672416 -18.512088 -2.020502 0.000000 0.000000 0.000000 22.481092 -29.504264 7.067839 -6.357458 -55.282147 -3.207476 22.570057 -61.133656 -12.247394 0.000000 0.000000 0.000000 -2.718224 16.757703 6.134158 34.538737 26.944496 3.756222 -5.280367 26.702172 0.114434 0.000000 0.000000 0.000000 
-0.044156 0.960601 -0.109284 7.035612 3.598999 15.683815 5.688358 -1.014069 -15.109136 0.388227 0.174852 -5.728933 0.191322 8.649557 23.673660 0.000000 0.000000 0.000000 -5.154821 1.242337 -20.353089 -5.338220 0.655073 1.147101 -1.190637 -6.544685 11.521573 0.000000 0.000000 0.000000 7.411572 -2.067297 14.191694 10.144401 -5.281890 3.913029 -5.710158 7.468964 8.780329 22.829591 -18.201213 -2.902307 0.000000 0.000000 0.000000 22.007905 -29.902886 7.276042 -4.228790 -57.470726 -4.513411 24.083578 -57.603142 -12.221931 0.000000 0.000000 0.000000 -2.906744 17.190791 6.278748 33.938643 25.819097 3.408816 -5.190941 26.330802 0.126096 0.000000 0.000000 0.000000 
-0.043937 0.960854 -0.109708 7.242511 4.188253 15.595881 5.670143 -1.023971 -15.024433 0.321838 0.182104 -5.868865 -0.265238 8.136486 23.587503 0.000000 0.000000 0.000000 -5.440092 1.165983 -19.993529 -5.165481 0.634192 1.084235 -1.448802 -6.845632 11.030549 0.000000 0.000000 0.000000 7.372290 -2.064872 14.156739 10.210293 -5.299436 3.673079 -5.184340 7.780725 8.871232 24.249547 -18.583516 -4.703877 0.000000 0.000000 0.000000 21.966661 -29.735599 7.315968 -2.332978 -59.420326 -5.840156 24.784953 -54.537040 -11.797865 0.000000 0.000000 0.000000 -3.127034 17.224797 6.254329 33.684950 25.080793 3.188207 -5.246801 25.485393 0.107089 0.000000 0.000000 0.000000 
-0.043668 0.960483 -0.109992 7.340978 4.914203 15.458726 5.633505 -1.045909 -15.127862 0.417004 0.169013 -5.639610 -0.436963 7.995278 23.390816 0.000000 0.000000 0.000000 -5.703721 1.088637 -19.606908 -4.950551 0.600433 0.908064 -1.789260 -7.461145 11.262124 0.000000 0.000000 0.000000 7.556076 -2.060831 13.734052 10.065268 -5.227372 3.517450 -4.868634 7.811261 8.895756 24.344109 -18.594516 -4.881949 0.000000 0.000000 0.000000 21.170808 -29.475583 7.420847 -1.386746 -60.698434 -6.587121 24.447277 -52.220022 -11.008637 0.000000 0.000000 0.000000 -3.056359 17.390089 6.332109 33.491735 24.839196 3.098074 -5.553514 24.376048 0.032763 0.000000 0.000000 0.000000 
-0.043334 0.960293 -0.110122 7.298407 5.346988 15.325303 5.803124 -1.043544 -15.163265 0.383704 0.165038 -5.495043 -0.661894 7.769779 23.372320 0.000000 0.000000 0.000000 -5.835855 1.046872 -19.430929 -4.750939 0.587701 0.994432 -1.986976 -7.701372 10.832658 0.000000 0.000000 0.000000 7.839910 -2.081783 13.428958 9.702518 -5.088391 3.721510 -4.557740 7.978588 8.643747 25.166579 -18.953246 -5.566192 0.000000 0.000000 0.000000 19.534919 -29.334685 7.650876 -1.995854 -61.434595 -6.414771 22.518121 -51.036983 -9.750880 0.000000 0.000000 0.000000 -2.717398 17.240162 6.357488 33.311267 24.571819 2.995891 -5.768732 24.236387 0.002197 0.000000 0.000000 0.000000 
-0.042957 0.959764 -0.109976 7.056252 5.390189 15.255020 5.756607 -1.038674 -15.035488 1.142955 0.117395 -5.184891 -0.755422 7.506688 22.805445 0.000000 0.000000 0.000000 -5.874598 1.038708 -19.326482 -4.431042 0.543870 0.889384 -1.782377 -7.288807 10.827730 0.000000 0.000000 0.000000 8.234429 -2.084645 12.865843 9.267384 -4.876511 3.795129 -4.227382 8.219159 8.498888 24.976095 -18.640679 -5.858604 0.000000 0.000000 0.000000 16.382600 -28.855096 7.942272 -6.644349 -60.821862 -3.818910 20.114755 -52.228935 -8.847335 0.000000 0.000000 0.000000 -2.214197 16.866961 6.326564 32.852375 24.603265 2.911357 -5.655130 24.243689 0.034213 0.000000 0.000000 0.000000 
